<svg xmlns="http://www.w3.org/2000/svg" width="35.753" height="31.781" viewBox="0 0 35.753 31.781">
  <path id="Icon_awesome-shopping-cart" data-name="Icon awesome-shopping-cart" d="M32.781,18.7,35.715,5.792a1.49,1.49,0,0,0-1.453-1.82H9.882L9.313,1.191A1.49,1.49,0,0,0,7.854,0H1.49A1.49,1.49,0,0,0,0,1.49v.993a1.49,1.49,0,0,0,1.49,1.49H5.827l4.36,21.317a3.476,3.476,0,1,0,4.162.532H27.362a3.475,3.475,0,1,0,3.948-.646l.342-1.507a1.49,1.49,0,0,0-1.453-1.82H13.539l-.406-1.986h18.2A1.49,1.49,0,0,0,32.781,18.7Z"/>
</svg>
